<?xml version="1.0" encoding="UTF-8"?>
<svg width="302px" height="69px" viewBox="0 0 302 69" version="1.1" xmlns="http://www.w3.org/2000/svg" xmlns:xlink="http://www.w3.org/1999/xlink">
    <title>Group</title>
    <g id="Page-1" stroke="none" stroke-width="1" fill="none" fill-rule="evenodd">
        <g id="Vector-file" transform="translate(-3315.000000, -1536.000000)">
            <g id="Group" transform="translate(3315.467300, 1536.455000)">
                <polygon id="Fill-6" fill="#D1D1D1" points="25.5041776 50.5226249 25.5041776 60.3766447 0.175230263 45.4621315 0.175230263 15.96875 8.54124658 21.0127193 8.54124658 40.5358961"></polygon>
                <polygon id="Fill-7" fill="#D55500" points="51.4910197 15.200686 51.4910197 45.2450658 43.0825475 40.2830073 43.0825475 20.1627445 26.0345646 10.1028731 9.05680921 20.1211339 9.05680921 10.197017 26.0345646 0.179276316"></polygon>
                <polygon id="Fill-8" fill="#D55500" points="56.0962829 52.8102119 40.9108045 54.7845395 28.7936513 36.3634868"></polygon>
                <polygon id="Fill-9" fill="#D1D1D1" points="40.9647039 54.4773742 32.7913139 67.9424342 28.8749193 36.3638187 28.8764722 36.3559514 28.7936513 35.7055921"></polygon>
                <polygon id="Fill-10" fill="#D55500" points="25.3404956 17.9424342 14.3199671 24.2742772 14.3199671 36.9374378 25.3404956 43.2713816 25.3404956 38.4741807 18.4929064 34.5398878 18.4929064 26.673928 25.3404956 22.7396351 32.1865015 26.673928 32.1865015 34.5078504 36.2961105 36.9736768 36.3594408 36.9374378 36.3594408 24.2742772"></polygon>
                <g id="LinkClicks" transform="translate(69.254178, 11.692434)" fill-rule="nonzero">
                    <path d="M22.5505029,34.9949241 L22.5505029,30.0086007 L5.91041406,30.0086007 L5.91041406,3.2637753 L-1.12190958e-13,3.2637753 L-1.12190958e-13,34.9949241 L22.5505029,34.9949241 Z M29.5102444,6.79953188 C30.6013978,6.79953188 31.4803825,6.45955529 32.1471984,5.7796021 C32.8140144,5.09964891 33.1474223,4.26103998 33.1474223,3.2637753 C33.1474223,2.32695091 32.8064369,1.54878226 32.1244661,0.929269357 C31.4424952,0.309756452 30.571088,-3.73969861e-14 29.5102444,-3.73969861e-14 C28.4494009,-3.73969861e-14 27.5779937,0.324866523 26.8960228,0.97459957 C26.214052,1.62433262 25.8730666,2.43272141 25.8730666,3.39976594 C25.8730666,4.33659033 26.214052,5.13742409 26.8960228,5.80226721 C27.5779937,6.46711032 28.4494009,6.79953188 29.5102444,6.79953188 Z M32.3290573,34.9949241 L32.3290573,10.7885906 L26.6459669,10.7885906 L26.6459669,34.9949241 L32.3290573,34.9949241 Z M45.4265365,34.9949241 L45.4265365,22.7557667 C45.4265365,21.123879 45.7069023,19.7715277 46.2676339,18.6987127 C46.8283655,17.6258976 47.6239982,16.8175089 48.6545319,16.2735463 C49.6850657,15.7295838 50.8671485,15.4576025 52.2007804,15.4576025 C54.0193693,15.4576025 55.4363532,15.986455 56.451732,17.0441599 C57.4671108,18.1018649 57.9748002,19.7035324 57.9748002,21.8491624 L57.9748002,21.8491624 L57.9748002,34.9949241 L63.6578907,34.9949241 L63.6578907,21.123879 C63.6578907,18.6760476 63.2183984,16.6739632 62.3394137,15.1176259 C61.4604291,13.5612886 60.2556139,12.4053682 58.7249682,11.6498646 C57.1943225,10.8943611 55.4590855,10.5166093 53.5192573,10.5166093 C51.3975702,10.5166093 49.5259391,10.9321363 47.904364,11.7631902 C46.8802113,12.2880663 46.0102104,12.9545837 45.2943614,13.7627422 L45.1536996,13.9264524 L45.1537482,10.7885906 L39.7434461,10.7885906 L39.7434461,34.9949241 L45.4265365,34.9949241 Z M76.5280463,34.9949241 L76.5274424,28.6152176 L80.7545996,24.6294383 L89.1672395,34.9949241 L96.0778774,34.9949241 L84.9927204,20.9326518 L95.1231183,10.7885906 L88.3034097,10.7885906 L76.5274424,21.6459109 L76.5280463,1.35990638 L70.8449559,1.35990638 L70.8449559,34.9949241 L76.5280463,34.9949241 Z" id="Link" fill="#D1D1D1"></path>
                    <path d="M114.994841,35.4482262 C117.631795,35.4482262 120.026271,34.9949241 122.178268,34.0883198 C124.330265,33.1817156 126.148853,31.8671394 127.634034,30.1445913 L127.634034,30.1445913 L123.814998,26.5181743 C122.663225,27.7874203 121.375058,28.7317997 119.950496,29.3513126 C118.525935,29.9708255 116.980134,30.280582 115.313094,30.280582 C113.646055,30.280582 112.122986,30.0086007 110.74389,29.4646382 C109.364793,28.9206756 108.167555,28.150062 107.152176,27.1527973 C106.136798,26.1555326 105.348742,24.9769471 104.788011,23.6170407 C104.227279,22.2571344 103.946913,20.7612373 103.946913,19.1293497 C103.946913,17.497462 104.227279,16.001565 104.788011,14.6416587 C105.348742,13.2817523 106.136798,12.1031668 107.152176,11.1059021 C108.167555,10.1086374 109.364793,9.33802379 110.74389,8.79406123 C112.122986,8.25009868 113.646055,7.97811741 115.313094,7.97811741 C116.980134,7.97811741 118.525935,8.28787386 119.950496,8.90738677 C121.375058,9.52689967 122.663225,10.456169 123.814998,11.6951948 L123.814998,11.6951948 L127.634034,8.11410805 C126.148853,6.36133983 124.330265,5.03920863 122.178268,4.14771445 C120.026271,3.25622027 117.64695,2.81047318 115.040306,2.81047318 C112.585211,2.81047318 110.32713,3.21089006 108.266062,4.01172381 C106.204995,4.81255757 104.401561,5.94581288 102.85576,7.41148975 C101.30996,8.87716662 100.112722,10.6072697 99.264047,12.6017991 C98.4153721,14.5963284 97.9910347,16.7721786 97.9910347,19.1293497 C97.9910347,21.4865207 98.4153721,23.662371 99.264047,25.6569003 C100.112722,27.6514297 101.302382,29.3815328 102.833028,30.8472096 C104.363673,32.3128865 106.167107,33.4461418 108.24333,34.2469756 C110.319552,35.0478093 112.570056,35.4482262 114.994841,35.4482262 Z M138.412813,34.9949241 L138.412813,1.35990638 L132.729722,1.35990638 L132.729722,34.9949241 L138.412813,34.9949241 Z M148.691479,6.79953188 C149.782633,6.79953188 150.661617,6.45955529 151.328433,5.7796021 C151.995249,5.09964891 152.328657,4.26103998 152.328657,3.2637753 C152.328657,2.32695091 151.987672,1.54878226 151.305701,0.929269357 C150.62373,0.309756452 149.752323,-7.76706634e-14 148.691479,-7.76706634e-14 C147.630636,-7.76706634e-14 146.759228,0.324866523 146.077258,0.97459957 C145.395287,1.62433262 145.054301,2.43272141 145.054301,3.39976594 C145.054301,4.33659033 145.395287,5.13742409 146.077258,5.80226721 C146.759228,6.46711032 147.630636,6.79953188 148.691479,6.79953188 Z M151.510292,34.9949241 L151.510292,10.7885906 L145.827202,10.7885906 L145.827202,34.9949241 L151.510292,34.9949241 Z M170.063538,35.3122356 C172.427704,35.3122356 174.511504,34.8211583 176.314938,33.8390037 C178.118372,32.8568491 179.489891,31.4591675 180.429495,29.645959 L180.429495,29.645959 L176.064882,27.1074671 C175.337446,28.2558325 174.450884,29.1019965 173.405195,29.645959 C172.359507,30.1899216 171.230466,30.4619028 170.018073,30.4619028 C168.623822,30.4619028 167.365964,30.1597014 166.244501,29.5552986 C165.123038,28.9508957 164.244053,28.0820667 163.607547,26.9488114 C162.971041,25.815556 162.652788,24.4632047 162.652788,22.8917573 C162.652788,21.32031 162.971041,19.9679586 163.607547,18.8347033 C164.244053,17.701448 165.123038,16.8326189 166.244501,16.2282161 C167.365964,15.6238133 168.623822,15.3216118 170.018073,15.3216118 C171.230466,15.3216118 172.359507,15.5935931 173.405195,16.1375557 C174.450884,16.6815182 175.337446,17.5276822 176.064882,18.6760476 L176.064882,18.6760476 L180.429495,16.1375557 C179.489891,14.294127 178.118372,12.8964455 176.314938,11.944511 C174.511504,10.9925765 172.427704,10.5166093 170.063538,10.5166093 C167.517514,10.5166093 165.251855,11.0454618 163.266562,12.1031668 C161.281269,13.1608717 159.727891,14.6189935 158.606428,16.4775323 C157.484965,18.336071 156.924233,20.474146 156.924233,22.8917573 C156.924233,25.2791485 157.484965,27.4096685 158.606428,29.2833173 C159.727891,31.1569661 161.281269,32.630198 163.266562,33.703013 C165.251855,34.7758281 167.517514,35.3122356 170.063538,35.3122356 Z M190.389908,34.9949241 L190.389337,28.6152176 L194.616494,24.6294383 L203.029102,34.9949241 L209.93974,34.9949241 L198.854615,20.9319686 L208.98498,10.7885906 L202.165272,10.7885906 L190.389337,21.6459109 L190.389908,1.35990638 L184.706818,1.35990638 L184.706818,34.9949241 L190.389908,34.9949241 Z M219.5819,35.3122356 C221.855136,35.3122356 223.810119,35.0024791 225.446849,34.3829662 C227.083579,33.7634533 228.349014,32.8946242 229.243154,31.776479 C230.137293,30.6583338 230.584363,29.3437576 230.584363,27.8327505 C230.584363,26.4728441 230.311575,25.369809 229.765998,24.523645 C229.220421,23.677481 228.500563,23.0201929 227.606423,22.5517807 C226.712284,22.0833685 225.734792,21.7131718 224.673949,21.4411905 C223.613105,21.1692093 222.544684,20.9652233 221.468686,20.8292327 C220.392687,20.693242 219.415196,20.5194762 218.536211,20.3079352 C217.657226,20.0963942 216.944946,19.8093029 216.399369,19.4466612 C215.853792,19.0840195 215.581004,18.5400569 215.581004,17.8147735 C215.581004,17.0290498 215.997764,16.3793168 216.831284,15.8655744 C217.664804,15.351832 218.945394,15.0949608 220.673053,15.0949608 C221.824826,15.0949608 222.984177,15.2233964 224.151104,15.4802676 C225.318032,15.7371388 226.477383,16.213106 227.629156,16.9081693 L227.629156,16.9081693 L229.811463,12.6017991 C228.720309,11.936956 227.341213,11.4232136 225.674173,11.0605719 C224.007133,10.6979302 222.355248,10.5166093 220.718518,10.5166093 C218.536211,10.5166093 216.649425,10.8263658 215.05816,11.4458787 C213.466894,12.0653916 212.231769,12.9417757 211.352785,14.075031 C210.4738,15.2082863 210.034308,16.5455276 210.034308,18.0867548 C210.034308,19.4768813 210.307096,20.5950266 210.852673,21.4411905 C211.39825,22.2873545 212.11053,22.9597527 212.989515,23.458385 C213.8685,23.9570173 214.845991,24.3347691 215.92199,24.5916403 C216.997988,24.8485115 218.073986,25.0524975 219.149985,25.2035982 C220.225983,25.3546989 221.203475,25.5209097 222.08246,25.7022305 C222.961444,25.8835514 223.673725,26.1479776 224.219302,26.4955092 C224.764878,26.8430409 225.037667,27.3492282 225.037667,28.0140714 C225.037667,28.8300152 224.636062,29.4797482 223.832851,29.9632705 C223.029641,30.4467928 221.733897,30.6885539 219.945618,30.6885539 C218.430127,30.6885539 216.914636,30.4619028 215.399145,30.0086007 C213.883654,29.5552986 212.580332,28.9811159 211.489179,28.2860526 L211.489179,28.2860526 L209.306872,32.5924228 C210.398026,33.3479264 211.875629,33.9901044 213.739683,34.5189569 C215.603736,35.0478093 217.551142,35.3122356 219.5819,35.3122356 Z" id="Clicks" fill="#D55500"></path>
                </g>
            </g>
        </g>
    </g>
</svg>